<svg id="Layer_1" data-name="Layer 1" xmlns="http://www.w3.org/2000/svg" xmlns:xlink="http://www.w3.org/1999/xlink" viewBox="0 0 144.42 98.34"><defs><style>.cls-1{fill:none;}.cls-2{clip-path:url(#clip-path);}.cls-3{fill:#231f20;}</style><clipPath id="clip-path"><rect class="cls-1" width="144.42" height="98.34"/></clipPath></defs><title>Artboard 1</title><g class="cls-2"><path class="cls-3" d="M36.27,76.05c0-3.64-.28-5.54-1-6.43a3.58,3.58,0,0,0-2.84-1.28,3.47,3.47,0,0,0-3.08,1.51c-.57.95-.81,2.94-.81,6.2V88.12c0,3.64.28,5.54,1,6.44a3.59,3.59,0,0,0,2.84,1.28,3.46,3.46,0,0,0,3.07-1.51c.57-.95.81-2.94.81-6.2Zm-10.41,0c0-4.78.24-6.25,1.14-7.71a6.29,6.29,0,0,1,5.44-2.51,6.26,6.26,0,0,1,5.4,2.51c.9,1.47,1.14,2.93,1.14,7.71V88.12c0,4.78-.24,6.25-1.14,7.71a6.26,6.26,0,0,1-5.4,2.51A6.29,6.29,0,0,1,27,95.83c-.9-1.47-1.14-2.93-1.14-7.71Z"/><path class="cls-3" d="M44.41,66.3h2.51l5.87,17.46c.47,1.28,2,6.53,2.93,10.27C55.24,88.26,55,83.53,55,80V66.3h2.51V97.87H55L49.14,80.41c-.66-2.08-1-3.31-2.89-10.22a100.46,100.46,0,0,1,.66,13.06V97.87H44.41Z"/></g><polygon class="cls-3" points="68.54 66.31 68.54 68.81 73.46 68.81 73.46 97.87 76.16 97.87 76.16 68.81 81.08 68.81 81.08 66.31 68.54 66.31"/><polygon class="cls-3" points="95.09 66.31 95.09 79.46 87.05 79.46 87.05 66.31 84.35 66.31 84.35 97.87 87.05 97.87 87.05 81.97 95.09 81.97 95.09 97.87 97.79 97.87 97.79 66.31 95.09 66.31"/><rect class="cls-3" x="103.61" y="66.31" width="2.7" height="31.56"/><g class="cls-2"><path class="cls-3" d="M114.78,80.93h1.75c3.83,0,5.44-1.8,5.44-6.06s-1.61-6.06-5.44-6.06h-1.75Zm-2.7-14.62h4.49c5.68,0,8,2.51,8,8.47,0,4.54-1.61,7.24-4.88,8.33l5.73,14.76h-2.84l-5.73-14.48c-1,0-1.14,0-2.13,0V97.87h-2.7Z"/><path class="cls-3" d="M132.38,95.36h1.89c3,0,4.26-.66,5.06-2.7.52-1.33.76-3.93.76-8.9V80.41c0-6.11-.28-8.47-1.23-9.84s-2-1.75-4.59-1.75h-1.89Zm1.56-29.05c4.59,0,6.67,1,7.9,3.79.62,1.51.94,4.4.94,9V85c0,5.82-.42,8.47-1.61,10.17-1.37,2-3.22,2.65-7.24,2.65h-4.26V66.3Z"/><path class="cls-3" d="M39.48,17.94c0-5.94-.47-9.19-1.58-10.7A6,6,0,0,0,33.06,5,5.8,5.8,0,0,0,28,7.49c-1,1.57-1.42,4.83-1.42,10.45V38.15c0,5.94.47,9.19,1.58,10.7A6,6,0,0,0,33,51.07a5.82,5.82,0,0,0,5.07-2.45C39,47,39.48,43.78,39.48,38.15Zm-17.43,0c0-8,.39-10.45,1.9-12.91C25.62,2.41,29,.82,33.06.82s7.37,1.59,9,4.21C43.61,7.49,44,9.94,44,17.94V38.15c0,8-.4,10.47-1.9,12.92-1.67,2.61-5.08,4.2-9,4.2s-7.45-1.59-9.11-4.2c-1.51-2.45-1.9-4.92-1.9-12.92Z"/><path class="cls-3" d="M66.84,37.52,63.11,17.86c-.55-3-.87-5.23-1.11-7.61a50.68,50.68,0,0,1-1,7.61L57.08,37.52ZM53.76,55.27H49.4L60,2.41h4L74.67,55.27H70.08L67.62,41.73H56.29Z"/><path class="cls-3" d="M80,2.41h4.2L94,31.66c3.25,9.42,3.25,9.42,4.13,12.91C98,40.13,97.74,32.21,97.74,28V2.41h4.21V55.27H97.74L87.91,26c-.48-1.51-1-3-1.59-4.52-.32-.95-1.11-3.73-2.53-8.4.31,5.71.4,9.12.4,17.67V55.27H80Z"/></g><polygon class="cls-3" points="110.66 0 111.61 21.16 115.57 21.16 116.53 0 110.66 0"/><g class="cls-2"><path class="cls-3" d="M127,39.9c0,5.15.32,7.13,1.35,8.72a5.68,5.68,0,0,0,5.16,2.45c4.36,0,6.5-2.86,6.5-8.57,0-5.46-1.18-7.6-8.24-14.89C128.1,23.88,126.9,22.55,126,21a16.33,16.33,0,0,1-2.29-8.88c0-7.45,3.48-11.34,10.06-11.34,6.09,0,9.59,3.89,9.59,10.55a13.52,13.52,0,0,1-.09,1.74l-4.42,1.43.07-2.31c0-4.74-1.82-7.2-5.39-7.2-3.41,0-5.31,2.38-5.31,6.66a14.06,14.06,0,0,0,1.66,6.73c1,1.67,1,1.67,6.18,6.82,6.66,6.57,8.41,10.06,8.41,17,0,8.8-3.57,13-11.09,13-7.14,0-10.78-4.2-10.78-12.44V41.4Z"/><path class="cls-3" d="M13.57.82H9.05V34.47H9v20c0,7.53-1.58,10-6.42,10A13.31,13.31,0,0,1,0,64.12l.47,4.43c1,.09,1.83.16,2.31.16,4,0,7-1.27,8.63-3.56S13.55,60.38,13.55,54V35.67h0Z"/></g></svg>